<?xml version="1.0" encoding="utf-8"?>
<!-- Generator: Adobe Illustrator 15.0.0, SVG Export Plug-In . SVG Version: 6.00 Build 0)  -->
<!DOCTYPE svg PUBLIC "-//W3C//DTD SVG 1.1//EN" "http://www.w3.org/Graphics/SVG/1.1/DTD/svg11.dtd">
<svg version="1.1" id="Calque_1" xmlns="http://www.w3.org/2000/svg" xmlns:xlink="http://www.w3.org/1999/xlink" x="0px" y="0px"
	 width="20px" height="20px" viewBox="0 0 12 12" enable-background="new 0 0 12 12" xml:space="preserve">
<g>
	<path d="M11.166,3.91h-0.544V3.403c0-0.593-0.469-1.076-1.044-1.076H8.823V2.03c0-0.478-0.373-0.866-0.833-0.866H0.833
		C0.374,1.164,0,1.552,0,2.03v5.25c0,0.479,0.374,0.865,0.833,0.865h0.545v0.507c0,0.595,0.467,1.077,1.043,1.077h0.754v0.298
		c0,0.478,0.374,0.866,0.834,0.866h7.156c0.46,0,0.834-0.389,0.834-0.866v-5.25C12,4.299,11.626,3.91,11.166,3.91z M2.422,9.309
		c-0.344,0-0.624-0.294-0.624-0.657V3.403c0-0.362,0.28-0.656,0.624-0.656h7.156c0.344,0,0.623,0.294,0.623,0.656V3.91H4.01
		c-0.46,0-0.834,0.389-0.834,0.866v4.532H2.422z M11.62,10.026c0,0.26-0.203,0.472-0.454,0.472H4.01
		c-0.251,0-0.455-0.212-0.455-0.472v-5.25c0-0.262,0.204-0.472,0.455-0.472h7.156c0.251,0,0.454,0.21,0.454,0.472V10.026z"/>
</g>
</svg>
