<?xml version="1.0" encoding="utf-8"?>
<!-- Generator: Adobe Illustrator 15.0.0, SVG Export Plug-In . SVG Version: 6.00 Build 0)  -->
<!DOCTYPE svg PUBLIC "-//W3C//DTD SVG 1.1//EN" "http://www.w3.org/Graphics/SVG/1.1/DTD/svg11.dtd">
<svg version="1.1" id="Calque_1" xmlns="http://www.w3.org/2000/svg" xmlns:xlink="http://www.w3.org/1999/xlink" x="0px" y="0px"
	 width="20px" height="20px" viewBox="0 0 12 12" enable-background="new 0 0 12 12" xml:space="preserve">
<path d="M11.181,3.88h-0.546V3.372c0-0.593-0.469-1.077-1.045-1.077H8.834V1.997C8.834,1.52,8.46,1.13,8,1.13H0.834
	C0.375,1.13,0,1.52,0,1.997v5.257C0,7.731,0.375,8.12,0.834,8.12H1.38v0.508c0,0.594,0.468,1.077,1.044,1.077H3.18v0.299
	c0,0.478,0.374,0.865,0.835,0.865h7.166c0.459,0,0.834-0.388,0.834-0.865V4.748C12.015,4.269,11.64,3.88,11.181,3.88z M1.38,3.372
	v4.354H0.834c-0.251,0-0.455-0.212-0.455-0.472V1.997c0-0.261,0.204-0.474,0.455-0.474H8c0.25,0,0.454,0.212,0.454,0.474v0.298
	h-6.03C1.848,2.295,1.38,2.778,1.38,3.372z M2.424,9.284C2.08,9.284,1.8,8.99,1.8,8.628V3.372c0-0.361,0.28-0.657,0.624-0.657H9.59
	c0.343,0,0.624,0.296,0.624,0.657V3.88H4.015c-0.461,0-0.835,0.389-0.835,0.868v4.537H2.424z"/>
</svg>
