<?xml version="1.0" encoding="utf-8"?>
<!-- Generator: Adobe Illustrator 15.0.0, SVG Export Plug-In . SVG Version: 6.00 Build 0)  -->
<!DOCTYPE svg PUBLIC "-//W3C//DTD SVG 1.1//EN" "http://www.w3.org/Graphics/SVG/1.1/DTD/svg11.dtd">
<svg version="1.1" id="Calque_1" xmlns="http://www.w3.org/2000/svg" xmlns:xlink="http://www.w3.org/1999/xlink" x="0px" y="0px"
	 width="20px" height="20px" viewBox="0 0 12 12" enable-background="new 0 0 12 12" xml:space="preserve">
<path fill="#231F20" d="M9.115,6.01v4.396c0,0.423-0.345,0.769-0.769,0.769H1.568c-0.424,0-0.768-0.346-0.768-0.769V3.962
	l0.047-0.048h2.337c0.423,0,0.769-0.344,0.769-0.768V0.808l0.008-0.007h4.385c0.347,0,0.629,0.234,0.725,0.549l0.604-0.605
	C9.399,0.3,8.91,0,8.347,0H3.962C3.749,0,3.545,0.084,3.395,0.234L0.234,3.395C0.084,3.545,0,3.749,0,3.962v6.444
	c0,0.863,0.703,1.568,1.568,1.568h6.778c0.866,0,1.568-0.705,1.568-1.568V5.21L9.115,6.01z"/>
<g>
	<path fill="#231F20" d="M9.492,4.437L8.744,3.689L5.489,6.944c-0.06,0.059-0.148,0.069-0.196,0.02
		c-0.05-0.05-0.041-0.137,0.02-0.197l3.254-3.255L8.335,3.278C8.32,3.291,8.307,3.303,8.293,3.316L4.705,6.903
		C4.582,7.026,4.507,7.179,4.478,7.34l0,0C4.472,7.372,4.47,7.406,4.467,7.44c-0.03,0.19-0.146,0.622-0.575,1.052l0.003-0.001
		C3.802,8.6,3.805,8.763,3.907,8.864c0.106,0.106,0.28,0.106,0.388,0l0.122-0.122c0.385-0.323,0.748-0.414,0.91-0.438
		c0.197-0.011,0.392-0.09,0.541-0.239l3.589-3.589C9.469,4.465,9.48,4.451,9.492,4.437z"/>
	<path fill="#231F20" d="M10.604,3.968l-0.183-0.184l1.282-1.283c0.396-0.396,0.396-1.037,0-1.434c-0.396-0.396-1.037-0.396-1.434,0
		L8.988,2.351L8.803,2.167C8.651,2.015,8.395,2.028,8.228,2.195C8.062,2.362,8.048,2.62,8.199,2.771L10,4.572
		c0.152,0.151,0.41,0.139,0.577-0.028C10.744,4.378,10.756,4.119,10.604,3.968z"/>
</g>
</svg>
