<?xml version="1.0" encoding="utf-8"?>
<!-- Generator: Adobe Illustrator 15.0.0, SVG Export Plug-In . SVG Version: 6.00 Build 0)  -->
<!DOCTYPE svg PUBLIC "-//W3C//DTD SVG 1.1//EN" "http://www.w3.org/Graphics/SVG/1.1/DTD/svg11.dtd">
<svg version="1.1" id="Calque_1" xmlns="http://www.w3.org/2000/svg" xmlns:xlink="http://www.w3.org/1999/xlink" x="0px" y="0px"
	 width="20px" height="20px" viewBox="0 0 14.47 15" enable-background="new 0 0 14.47 15" xml:space="preserve">
<g>
	<path fill="#231F20" d="M13.262,2.751c0-0.759-0.742-1.374-1.654-1.374H3.432c-0.913,0-1.653,0.613-1.653,1.374
		c0,0.074,0.009,0.146,0.021,0.217h11.436C13.252,2.897,13.262,2.825,13.262,2.751z"/>
	<g>
		<path fill="#231F20" d="M12.279,3.414H2.76c-0.099,0-0.177,0.073-0.177,0.163v2.967v6.344C2.583,14.051,3.61,15,4.874,15h5.29
			c1.264,0,2.293-0.949,2.293-2.112V4.632V3.576C12.457,3.486,12.377,3.414,12.279,3.414z M5.052,5.888v7.515
			c0,0.29-0.224,0.524-0.499,0.524c-0.277,0-0.5-0.234-0.5-0.524V6.064V5.01c0-0.289,0.223-0.522,0.5-0.522
			c0.275,0,0.499,0.234,0.499,0.522V5.888z M8.02,13.402c0,0.29-0.223,0.524-0.499,0.524c-0.277,0-0.501-0.234-0.501-0.524V5.316
			V5.01c0-0.289,0.224-0.523,0.501-0.523c0.032,0,0.065,0.003,0.097,0.01c0.014,0.002,0.024,0.008,0.035,0.011
			c0.02,0.006,0.037,0.01,0.055,0.017c0.016,0.007,0.031,0.016,0.047,0.024C7.766,4.556,7.778,4.562,7.79,4.57
			c0.018,0.012,0.035,0.027,0.053,0.041c0.004,0.006,0.012,0.01,0.017,0.017c0.019,0.017,0.036,0.038,0.052,0.06
			C7.915,4.69,7.917,4.694,7.919,4.696c0.016,0.025,0.031,0.051,0.046,0.078c0,0.001,0,0.001,0,0.003
			c0.027,0.057,0.042,0.119,0.048,0.186C8.016,4.978,8.02,4.994,8.02,5.009V13.4l0,0V13.402z M10.988,13.402
			c0,0.29-0.227,0.524-0.5,0.524c-0.275,0-0.502-0.234-0.502-0.524V5.01c0-0.289,0.227-0.523,0.502-0.523
			c0.273,0,0.5,0.234,0.5,0.523V13.402z"/>
		<path fill="#231F20" d="M9.287,0.748C9.287,0.335,8.924,0,8.477,0H6.563C6.115,0,5.752,0.335,5.752,0.748v0.228h3.535V0.748z"/>
	</g>
</g>
</svg>
