<?xml version="1.0" encoding="utf-8"?>
<!-- Generator: Adobe Illustrator 15.0.0, SVG Export Plug-In . SVG Version: 6.00 Build 0)  -->
<!DOCTYPE svg PUBLIC "-//W3C//DTD SVG 1.1//EN" "http://www.w3.org/Graphics/SVG/1.1/DTD/svg11.dtd">
<svg version="1.1" id="Calque_1" xmlns="http://www.w3.org/2000/svg" xmlns:xlink="http://www.w3.org/1999/xlink" x="0px" y="0px"
	 width="20px" height="20px" viewBox="0 0 12 12" enable-background="new 0 0 12 12" xml:space="preserve">
<path d="M10.552,3.418H9.394V2.499c0-0.475-0.371-0.861-0.828-0.861H1.447c-0.458,0-0.829,0.386-0.829,0.861v5.222
	c0,0.475,0.372,0.861,0.829,0.861h1.157V9.5c0,0.477,0.372,0.863,0.829,0.863h7.118c0.457,0,0.83-0.387,0.83-0.863V4.279
	C11.382,3.804,11.009,3.418,10.552,3.418z M11.005,9.5c0,0.262-0.203,0.471-0.453,0.471H3.434c-0.25,0-0.452-0.209-0.452-0.471
	V4.279c0-0.259,0.202-0.47,0.452-0.47h7.118c0.25,0,0.453,0.211,0.453,0.47V9.5z"/>
</svg>
