<?xml version="1.0" encoding="utf-8"?>
<!-- Generator: Adobe Illustrator 15.0.0, SVG Export Plug-In . SVG Version: 6.00 Build 0)  -->
<!DOCTYPE svg PUBLIC "-//W3C//DTD SVG 1.1//EN" "http://www.w3.org/Graphics/SVG/1.1/DTD/svg11.dtd">
<svg version="1.1" id="Calque_1" xmlns="http://www.w3.org/2000/svg" xmlns:xlink="http://www.w3.org/1999/xlink" x="0px" y="0px"
	 width="20px" height="20px" viewBox="0 0 12 12" enable-background="new 0 0 12 12" xml:space="preserve">
<g>
	<path fill="#231F20" d="M8.33,5.348L7.246,4.265L2.528,8.982C2.441,9.069,2.313,9.083,2.243,9.012
		C2.17,8.94,2.184,8.812,2.271,8.725l4.718-4.718L6.652,3.669c-0.021,0.018-0.041,0.035-0.06,0.054l-5.201,5.2
		c-0.179,0.179-0.288,0.4-0.33,0.633l0,0C1.053,9.604,1.049,9.653,1.045,9.702c-0.044,0.276-0.211,0.902-0.833,1.524l0.004-0.001
		c-0.135,0.157-0.13,0.393,0.018,0.54c0.155,0.155,0.406,0.155,0.562,0l0.176-0.176c0.559-0.468,1.084-0.6,1.321-0.635
		c0.285-0.014,0.566-0.129,0.784-0.347l5.202-5.201C8.296,5.389,8.313,5.368,8.33,5.348z"/>
	<path fill="#231F20" d="M9.941,4.668L9.676,4.402l1.859-1.859c0.573-0.574,0.573-1.504,0-2.078c-0.573-0.574-1.504-0.574-2.078,0
		L7.599,2.324L7.331,2.058C7.112,1.838,6.738,1.857,6.497,2.099s-0.26,0.616-0.041,0.835l2.611,2.61
		c0.22,0.219,0.593,0.201,0.835-0.041C10.144,5.262,10.162,4.887,9.941,4.668z"/>
</g>
</svg>
