<?xml version="1.0" encoding="utf-8"?>
<!-- Generator: Adobe Illustrator 15.0.0, SVG Export Plug-In . SVG Version: 6.00 Build 0)  -->
<!DOCTYPE svg PUBLIC "-//W3C//DTD SVG 1.1//EN" "http://www.w3.org/Graphics/SVG/1.1/DTD/svg11.dtd">
<svg version="1.1" id="Calque_1" xmlns="http://www.w3.org/2000/svg" xmlns:xlink="http://www.w3.org/1999/xlink" x="0px" y="0px"
	 width="20px" height="20px" viewBox="0 0 12 12" enable-background="new 0 0 12 12" xml:space="preserve">
<g>
	<path fill="#231F20" d="M9.209,8.858V1.335C9.209,0.599,8.611,0,7.876,0H4.142C3.961,0,3.788,0.072,3.66,0.199L0.969,2.891
		C0.841,3.018,0.77,3.191,0.77,3.372v5.486c0,0.735,0.599,1.335,1.335,1.335h5.771C8.611,10.193,9.209,9.594,9.209,8.858z
		 M1.451,8.858V3.372l0.041-0.041h1.99c0.361,0,0.654-0.292,0.654-0.654v-1.99l0.006-0.006h3.734c0.359,0,0.654,0.293,0.654,0.654
		v7.523c0,0.361-0.295,0.653-0.654,0.653H2.104C1.743,9.512,1.451,9.22,1.451,8.858z"/>
	<path fill="#231F20" d="M7.554,4.637H2.426c-0.157,0-0.284,0.127-0.284,0.284c0,0.157,0.127,0.284,0.284,0.284h5.128
		c0.157,0,0.285-0.127,0.285-0.284C7.839,4.765,7.711,4.637,7.554,4.637z"/>
	<path fill="#231F20" d="M7.554,5.773H2.426c-0.157,0-0.284,0.127-0.284,0.284c0,0.157,0.127,0.284,0.284,0.284h5.128
		c0.157,0,0.285-0.127,0.285-0.284C7.839,5.9,7.711,5.773,7.554,5.773z"/>
	<path fill="#231F20" d="M7.554,6.908H2.426c-0.157,0-0.284,0.127-0.284,0.284c0,0.156,0.127,0.283,0.284,0.283h5.128
		c0.157,0,0.285-0.127,0.285-0.283C7.839,7.035,7.711,6.908,7.554,6.908z"/>
	<path fill="#231F20" d="M10.104,1.806h-0.44v0.681h0.44c0.361,0,0.654,0.293,0.654,0.655v7.522c0,0.362-0.293,0.654-0.654,0.654
		h-5.77c-0.361,0-0.654-0.292-0.654-0.654v-0.021H3v0.021C3,11.4,3.598,12,4.335,12h5.77c0.737,0,1.336-0.6,1.336-1.336V3.142
		C11.44,2.405,10.842,1.806,10.104,1.806z"/>
</g>
</svg>
