<?xml version="1.0" encoding="utf-8"?>
<!-- Generator: Adobe Illustrator 15.0.0, SVG Export Plug-In . SVG Version: 6.00 Build 0)  -->
<!DOCTYPE svg PUBLIC "-//W3C//DTD SVG 1.1//EN" "http://www.w3.org/Graphics/SVG/1.1/DTD/svg11.dtd">
<svg version="1.1" id="Calque_1" xmlns="http://www.w3.org/2000/svg" xmlns:xlink="http://www.w3.org/1999/xlink" x="0px" y="0px"
	 width="20px" height="20px" viewBox="0 0 12 12" enable-background="new 0 0 12 12" xml:space="preserve">
<path d="M10.507,3.431H9.354V2.515c0-0.473-0.37-0.857-0.824-0.857H1.443c-0.456,0-0.825,0.385-0.825,0.857v5.199
	c0,0.473,0.37,0.855,0.825,0.855h1.152v0.918c0,0.471,0.37,0.855,0.825,0.855h7.086c0.455,0,0.825-0.385,0.825-0.855v-5.2
	C11.332,3.815,10.962,3.431,10.507,3.431z M1.443,8.179c-0.249,0-0.45-0.207-0.45-0.465V2.515c0-0.258,0.201-0.468,0.45-0.468H8.53
	c0.247,0,0.449,0.21,0.449,0.468v0.916H3.421c-0.455,0-0.825,0.385-0.825,0.856v3.892H1.443z"/>
</svg>
